<?xml version="1.0" standalone="no"?>
<svg xmlns="http://www.w3.org/2000/svg" viewBox="0 0 196.56 52.64" width="196.56" height="52.64"><rect fill="none" stroke="#ce96f3" stroke-width="4" width="192.56" height="48.64" x="2" y="2"></rect><path fill="#ce96f3" fill-rule="nonzero" d="M4.68 28.24L0.16 28.24Q0 28.24 0 28.04L0 28.04L0.08 0.56Q0.08 0.40 0.24 0.40L0.24 0.40L5.12 0.40Q5.28 0.40 5.40 0.56L5.40 0.56L9.04 5.84L12.68 0.56Q12.80 0.40 12.96 0.40L12.96 0.40L17.88 0.40Q18.04 0.40 18.04 0.56L18.04 0.56L18.12 28.04Q18.12 28.24 17.96 28.24L17.96 28.24L13.44 28.24Q13.28 28.24 13.28 28.04L13.28 28.04L13.24 7.64L9.04 13.72L4.88 7.64L4.84 28.04Q4.84 28.24 4.68 28.24L4.68 28.24ZM28.84 28.64L28.84 28.64Q26.72 28.64 24.92 27.54Q23.12 26.44 22.06 24.60Q21 22.76 21 20.56L21 20.56L21.08 0.56Q21.08 0.40 21.24 0.40L21.24 0.40L25.72 0.40Q25.88 0.40 25.88 0.56L25.88 0.56L25.88 20.56Q25.88 21.92 26.74 22.86Q27.60 23.80 28.84 23.80L28.84 23.80Q30.12 23.80 30.98 22.86Q31.84 21.92 31.84 20.56L31.84 20.56L31.84 0.56Q31.84 0.40 32 0.40L32 0.40L36.48 0.40Q36.64 0.40 36.64 0.56L36.64 0.56L36.72 20.56Q36.72 22.80 35.66 24.64Q34.60 26.48 32.82 27.56Q31.04 28.64 28.84 28.64ZM52.96 28.24L40.04 28.24Q39.88 28.24 39.88 28.04L39.88 28.04L39.92 0.60Q39.92 0.40 40.12 0.40L40.12 0.40L44.56 0.40Q44.76 0.40 44.76 0.60L44.76 0.60L44.72 23.32L52.96 23.32Q53.16 23.32 53.16 23.52L53.16 23.52L53.16 28.04Q53.16 28.24 52.96 28.24L52.96 28.24ZM60.28 28.24L55.76 28.24Q55.60 28.24 55.60 28.04L55.60 28.04L55.60 5.24L50.40 5.24Q50.20 5.24 50.20 5.04L50.20 5.04L50.24 0.56Q50.24 0.40 50.40 0.40L50.40 0.40L65.60 0.40Q65.80 0.40 65.80 0.56L65.80 0.56L65.80 5.04Q65.80 5.24 65.64 5.24L65.64 5.24L60.40 5.24L60.44 28.04Q60.44 28.24 60.28 28.24L60.28 28.24ZM72.48 28.24L67.96 28.24Q67.76 28.24 67.76 28.04L67.76 28.04L67.80 0.56Q67.80 0.40 67.96 0.40L67.96 0.40L72.44 0.40Q72.60 0.40 72.60 0.56L72.60 0.56L72.64 28.04Q72.64 28.24 72.48 28.24L72.48 28.24ZM86.76 16.04L86.76 16.04Q85.64 16.04 84.70 15.62Q83.76 15.20 83 14.78Q82.24 14.36 81.56 14.36L81.56 14.36Q80.80 14.36 80.40 14.74Q80 15.12 80 15.68L80 15.68Q80 15.84 79.84 15.84L79.84 15.84L76.24 15.84Q76.08 15.84 76.08 15.68L76.08 15.68Q76.08 14.64 76.70 13.54Q77.32 12.44 78.46 11.68Q79.60 10.92 81.20 10.92L81.20 10.92Q82.36 10.92 83.24 11.32Q84.12 11.72 84.82 12.10Q85.52 12.48 86.04 12.48L86.04 12.48Q86.60 12.48 87.02 12.12Q87.44 11.76 87.44 11L87.44 11Q87.44 10.84 87.60 10.84L87.60 10.84L91.20 10.84Q91.36 10.84 91.36 11L91.36 11Q91.36 12.64 90.70 13.76Q90.04 14.88 88.98 15.46Q87.92 16.04 86.76 16.04ZM101.96 28.64L101.96 28.64Q99.80 28.64 98.02 27.54Q96.24 26.44 95.18 24.62Q94.12 22.80 94.12 20.60L94.12 20.60L94.12 18.76Q94.12 18.56 94.32 18.56L94.32 18.56L98.80 18.56Q98.96 18.56 98.96 18.76L98.96 18.76L98.96 20.60Q98.96 21.92 99.84 22.86Q100.72 23.80 101.96 23.80L101.96 23.80Q103.20 23.80 104.08 22.84Q104.96 21.88 104.96 20.60L104.96 20.60Q104.96 19.12 103.04 18.04L103.04 18.04Q102.40 17.68 101.04 16.92Q99.68 16.16 98.48 15.48L98.48 15.48Q96.28 14.20 95.22 12.26Q94.16 10.32 94.16 7.88L94.16 7.88Q94.16 5.64 95.24 3.86Q96.32 2.08 98.10 1.04Q99.88 0 101.96 0L101.96 0Q104.08 0 105.86 1.06Q107.64 2.12 108.70 3.90Q109.76 5.68 109.76 7.88L109.76 7.88L109.76 11.16Q109.76 11.32 109.60 11.32L109.60 11.32L105.12 11.32Q104.96 11.32 104.96 11.16L104.96 11.16L104.92 7.88Q104.92 6.48 104.04 5.60Q103.16 4.72 101.96 4.72L101.96 4.72Q100.72 4.72 99.84 5.66Q98.96 6.60 98.96 7.88L98.96 7.88Q98.96 9.20 99.52 10.08Q100.08 10.96 101.56 11.76L101.56 11.76Q101.76 11.88 102.34 12.18Q102.92 12.48 103.60 12.86Q104.28 13.24 104.82 13.52Q105.36 13.80 105.48 13.88L105.48 13.88Q107.48 15.00 108.64 16.62Q109.80 18.24 109.80 20.60L109.80 20.60Q109.80 22.88 108.74 24.70Q107.68 26.52 105.90 27.58Q104.12 28.64 101.96 28.64ZM117.28 28.24L112.76 28.24Q112.60 28.24 112.60 28.04L112.60 28.04L112.68 0.60Q112.68 0.40 112.84 0.40L112.84 0.40L117.32 0.40Q117.48 0.40 117.48 0.60L117.48 0.60L117.48 10.08L123.76 0.56Q123.88 0.40 124.04 0.40L124.04 0.40L128.64 0.40Q128.80 0.40 128.72 0.56L128.72 0.56L121.80 11.60L129.56 28.08Q129.64 28.24 129.36 28.24L129.36 28.24L124.48 28.24Q124.28 28.24 124.24 28.08L124.24 28.08L118.84 16.32L117.44 18.52L117.44 28.04Q117.44 28.24 117.28 28.24L117.28 28.24ZM135.68 28.24L131.16 28.24Q130.96 28.24 130.96 28.04L130.96 28.04L131.00 0.56Q131.00 0.40 131.16 0.40L131.16 0.40L135.64 0.40Q135.80 0.40 135.80 0.56L135.80 0.56L135.84 28.04Q135.84 28.24 135.68 28.24L135.68 28.24ZM143.72 28.24L139.72 28.24Q139.40 28.24 139.40 27.96L139.40 27.96L139.36 0.72Q139.36 0.40 139.68 0.40L139.68 0.40L143.28 0.40L150.04 16.16L149.84 0.72Q149.84 0.40 150.20 0.40L150.20 0.40L154.16 0.40Q154.40 0.40 154.40 0.72L154.40 0.72L154.44 28.00Q154.44 28.24 154.24 28.24L154.24 28.24L150.72 28.24L143.80 13.52L144.08 27.92Q144.08 28.24 143.72 28.24L143.72 28.24ZM164.72 28.64L164.72 28.64Q162.56 28.64 160.78 27.54Q159 26.44 157.94 24.62Q156.88 22.80 156.88 20.60L156.88 20.60L156.88 18.76Q156.88 18.56 157.08 18.56L157.08 18.56L161.56 18.56Q161.72 18.56 161.72 18.76L161.72 18.76L161.72 20.60Q161.72 21.92 162.60 22.86Q163.48 23.80 164.72 23.80L164.72 23.80Q165.96 23.80 166.84 22.84Q167.72 21.88 167.72 20.60L167.72 20.60Q167.72 19.12 165.80 18.04L165.80 18.04Q165.16 17.68 163.80 16.92Q162.44 16.16 161.24 15.48L161.24 15.48Q159.04 14.20 157.98 12.26Q156.92 10.32 156.92 7.88L156.92 7.88Q156.92 5.64 158 3.86Q159.08 2.08 160.86 1.04Q162.64 0 164.72 0L164.72 0Q166.84 0 168.62 1.06Q170.40 2.12 171.46 3.90Q172.52 5.68 172.52 7.88L172.52 7.88L172.52 11.16Q172.52 11.32 172.36 11.32L172.36 11.32L167.88 11.32Q167.72 11.32 167.72 11.16L167.72 11.16L167.68 7.88Q167.68 6.48 166.80 5.60Q165.92 4.72 164.72 4.72L164.72 4.72Q163.48 4.72 162.60 5.66Q161.72 6.60 161.72 7.88L161.72 7.88Q161.72 9.20 162.28 10.08Q162.84 10.96 164.32 11.76L164.32 11.76Q164.52 11.88 165.10 12.18Q165.68 12.48 166.36 12.86Q167.04 13.24 167.58 13.52Q168.12 13.80 168.24 13.88L168.24 13.88Q170.24 15.00 171.40 16.62Q172.56 18.24 172.56 20.60L172.56 20.60Q172.56 22.88 171.50 24.70Q170.44 26.52 168.66 27.58Q166.88 28.64 164.72 28.64Z" transform="translate(12 12) scale(1)"></path></svg>